<svg width="23" height="23" viewBox="0 0 23 23" fill="none" xmlns="http://www.w3.org/2000/svg">
<path d="M13.5956 11.0002L21.479 3.13518C21.8242 2.78995 22.0181 2.32173 22.0181 1.83351C22.0181 1.34529 21.8242 0.877067 21.479 0.531844C21.1337 0.18662 20.6655 -0.00732422 20.1773 -0.00732422C19.6891 -0.00732422 19.2209 0.18662 18.8756 0.531844L11.0106 8.41518L3.14563 0.531844C2.80041 0.18662 2.33218 -0.00732422 1.84396 -0.00732422C1.35574 -0.00732422 0.88752 0.18662 0.542297 0.531844C0.197073 0.877067 0.00312877 1.34529 0.00312877 1.83351C0.00312876 2.32173 0.197073 2.78995 0.542297 3.13518L8.42563 11.0002L0.542297 18.8652C0.370461 19.0356 0.234072 19.2384 0.140996 19.4618C0.0479205 19.6852 0 19.9248 0 20.1668C0 20.4089 0.0479205 20.6485 0.140996 20.8719C0.234072 21.0953 0.370461 21.2981 0.542297 21.4685C0.712729 21.6403 0.915498 21.7767 1.13891 21.8698C1.36231 21.9629 1.60194 22.0108 1.84396 22.0108C2.08599 22.0108 2.32561 21.9629 2.54902 21.8698C2.77243 21.7767 2.9752 21.6403 3.14563 21.4685L11.0106 13.5852L18.8756 21.4685C19.0461 21.6403 19.2488 21.7767 19.4722 21.8698C19.6956 21.9629 19.9353 22.0108 20.1773 22.0108C20.4193 22.0108 20.6589 21.9629 20.8824 21.8698C21.1058 21.7767 21.3085 21.6403 21.479 21.4685C21.6508 21.2981 21.7872 21.0953 21.8803 20.8719C21.9733 20.6485 22.0213 20.4089 22.0213 20.1668C22.0213 19.9248 21.9733 19.6852 21.8803 19.4618C21.7872 19.2384 21.6508 19.0356 21.479 18.8652L13.5956 11.0002Z" fill="white"/>
</svg>
