<svg width="345" height="22" viewBox="0 0 345 22" fill="none" xmlns="http://www.w3.org/2000/svg">
<path d="M10.2 19.44H10.74V0.419999H14.7V21.42H6.96L4.5 2.4H3.96V21.42H0V0.419999H7.74L10.2 19.44Z" fill="#E00000"/>
<path d="M38.2891 16.92H31.1491L30.1291 21.42H25.9891L30.9991 0.419999H38.4391L43.4491 21.42H39.3091L38.2891 16.92ZM31.9891 13.14H37.4191L34.9891 2.4H34.4491L31.9891 13.14Z" fill="#E00000"/>
<path d="M54.5283 0.419999H69.6483V4.2H64.0683V21.42H60.1083V4.2H54.5283V0.419999Z" fill="#E00000"/>
<path d="M82.1074 0.419999H86.0674V9H92.8474V0.419999H96.8074V21.42H92.8474V12.78H86.0674V21.42H82.1074V0.419999Z" fill="#E00000"/>
<path d="M120.397 16.92H113.257L112.237 21.42H108.097L113.107 0.419999H120.547L125.557 21.42H121.417L120.397 16.92ZM114.097 13.14H119.527L117.097 2.4H116.557L114.097 13.14Z" fill="#E00000"/>
<path d="M137.476 0.419999H141.436V17.64H150.976V21.42H137.476V0.419999Z" fill="#E00000"/>
<path d="M164.545 0.419999H178.585V4.2H173.545V17.64H178.585V21.42H164.545V17.64H169.585V4.2H164.545V0.419999Z" fill="#E00000"/>
<path d="M192.214 0.419999H205.474V4.2H196.174V9H205.114V12.78H196.174V17.64H205.834V21.42H192.214V0.419999Z" fill="#E00000"/>
<path d="M245.152 0.419999H252.112L253.312 16.2V19.26H254.032V16.2L255.232 0.419999H262.192V21.42H258.592V7.38L258.952 2.58H258.232L256.672 21.42H250.732L249.112 2.58H248.392L248.752 7.38V21.42H245.152V0.419999Z" fill="#E00000"/>
<path d="M273.301 8.58C273.301 5.86 273.981 3.75 275.341 2.25C276.721 0.749999 278.621 0 281.041 0C283.461 0 285.351 0.749999 286.711 2.25C288.091 3.75 288.781 5.86 288.781 8.58V13.26C288.781 16.06 288.091 18.19 286.711 19.65C285.351 21.11 283.461 21.84 281.041 21.84C278.621 21.84 276.721 21.11 275.341 19.65C273.981 18.19 273.301 16.06 273.301 13.26V8.58ZM281.041 18.24C281.761 18.24 282.361 18.13 282.841 17.91C283.321 17.67 283.711 17.34 284.011 16.92C284.311 16.5 284.521 16 284.641 15.42C284.761 14.84 284.821 14.2 284.821 13.5V8.34C284.821 7.68 284.751 7.06 284.611 6.48C284.471 5.9 284.251 5.4 283.951 4.98C283.651 4.56 283.261 4.23 282.781 3.99C282.301 3.73 281.721 3.6 281.041 3.6C280.361 3.6 279.781 3.73 279.301 3.99C278.821 4.23 278.431 4.56 278.131 4.98C277.831 5.4 277.611 5.9 277.471 6.48C277.331 7.06 277.261 7.68 277.261 8.34V13.5C277.261 14.2 277.321 14.84 277.441 15.42C277.561 16 277.771 16.5 278.071 16.92C278.371 17.34 278.761 17.67 279.241 17.91C279.721 18.13 280.321 18.24 281.041 18.24Z" fill="#E00000"/>
<path d="M300.851 0.419999H315.971V4.2H310.391V21.42H306.431V4.2H300.851V0.419999Z" fill="#E00000"/>
<path d="M339.35 16.92H332.21L331.19 21.42H327.05L332.06 0.419999H339.5L344.51 21.42H340.37L339.35 16.92ZM333.05 13.14H338.48L336.05 2.4H335.51L333.05 13.14Z" fill="#E00000"/>
</svg>
